<mxfile host="app.diagrams.net" modified="2022-11-30T17:28:35.632Z" agent="5.0 (Windows)" etag="YMGQ5p_unJpsz5VcB9v3" version="20.5.1" type="github">
  <diagram name="Page-1" id="2a216829-ef6e-dabb-86c1-c78162f3ba2b">
    <mxGraphModel dx="1673" dy="918" grid="1" gridSize="10" guides="1" tooltips="1" connect="1" arrows="1" fold="1" page="1" pageScale="1" pageWidth="850" pageHeight="1100" background="none" math="0" shadow="0">
      <root>
        <mxCell id="0" />
        <mxCell id="1" parent="0" />
        <mxCell id="cKA45MoPgxY7f5fzsTJi-1" value="clien App is opened" style="html=1;overflow=block;blockSpacing=1;whiteSpace=wrap;shape=mxgraph.bpmn.shape;verticalLabelPosition=bottom;verticalAlign=top;outline=standard;fontSize=13;fontColor=#333333;align=center;spacing=0;strokeColor=#333333;strokeOpacity=100;fillOpacity=100;rounded=1;absoluteArcSize=1;arcSize=12;fillColor=#ffffff;strokeWidth=0.8;" parent="1" vertex="1">
          <mxGeometry x="30" y="223" width="45" height="45" as="geometry" />
        </mxCell>
        <mxCell id="cKA45MoPgxY7f5fzsTJi-2" value="are  there any login info stored in the local app?" style="html=1;overflow=block;blockSpacing=1;shape=mxgraph.bpmn.shape;perimeter=rhombusPerimeter;background=gateway;verticalLabelPosition=bottom;verticalAlign=top;outline=none;symbol=exclusiveGw;strokeColor=#333333;strokeOpacity=100;fillOpacity=100;rounded=1;absoluteArcSize=1;arcSize=12;fillColor=#ffffff;strokeWidth=0.8;whiteSpace=wrap;fontSize=13;fontColor=#333333;align=center;spacing=0;" parent="1" vertex="1">
          <mxGeometry x="150" y="217" width="56" height="56" as="geometry" />
        </mxCell>
        <UserObject label="" lucidchartObjectId="e3la~ln5YHx4" id="cKA45MoPgxY7f5fzsTJi-3">
          <mxCell style="html=1;jettySize=18;whiteSpace=wrap;fontSize=13;strokeColor=#333333;strokeOpacity=100;strokeWidth=0.8;rounded=1;arcSize=24;edgeStyle=orthogonalEdgeStyle;startArrow=none;endArrow=block;endFill=1;exitX=1.008;exitY=0.5;exitPerimeter=0;entryX=-0.009;entryY=0.5;entryPerimeter=0;" parent="1" source="cKA45MoPgxY7f5fzsTJi-1" target="cKA45MoPgxY7f5fzsTJi-2" edge="1">
            <mxGeometry width="100" height="100" relative="1" as="geometry">
              <Array as="points" />
            </mxGeometry>
          </mxCell>
        </UserObject>
        <UserObject label="yes" lucidchartObjectId="e3la9mnETdaT" id="cKA45MoPgxY7f5fzsTJi-4">
          <mxCell style="html=1;jettySize=18;whiteSpace=wrap;fontSize=13;strokeColor=#333333;strokeOpacity=100;strokeWidth=0.8;rounded=1;arcSize=24;edgeStyle=orthogonalEdgeStyle;startArrow=none;endArrow=block;endFill=1;exitX=1.009;exitY=0.5;exitPerimeter=0;entryX=-0.003;entryY=0.5;entryPerimeter=0;" parent="1" source="cKA45MoPgxY7f5fzsTJi-2" target="cKA45MoPgxY7f5fzsTJi-5" edge="1">
            <mxGeometry width="100" height="100" relative="1" as="geometry">
              <Array as="points" />
            </mxGeometry>
          </mxCell>
        </UserObject>
        <mxCell id="cKA45MoPgxY7f5fzsTJi-5" value="show main page" style="html=1;overflow=block;blockSpacing=1;whiteSpace=wrap;fontSize=13;spacing=3.8;strokeColor=#333333;strokeOpacity=100;fillOpacity=100;rounded=1;absoluteArcSize=1;arcSize=12;fillColor=#ffffff;strokeWidth=0.8;" parent="1" vertex="1">
          <mxGeometry x="330" y="200" width="120" height="90" as="geometry" />
        </mxCell>
        <mxCell id="cKA45MoPgxY7f5fzsTJi-6" value="Event" style="html=1;overflow=block;blockSpacing=1;whiteSpace=wrap;shape=mxgraph.bpmn.shape;verticalLabelPosition=bottom;verticalAlign=top;outline=end;fontSize=13;fontColor=#333333;align=center;spacing=0;strokeColor=#333333;strokeOpacity=100;fillOpacity=100;rounded=1;absoluteArcSize=1;arcSize=12;fillColor=#ffffff;strokeWidth=0.8;" parent="1" vertex="1">
          <mxGeometry x="562" y="223" width="45" height="45" as="geometry" />
        </mxCell>
        <UserObject label="" lucidchartObjectId="e3laxbARgql6" id="cKA45MoPgxY7f5fzsTJi-7">
          <mxCell style="html=1;jettySize=18;whiteSpace=wrap;fontSize=13;strokeColor=#333333;strokeOpacity=100;strokeWidth=0.8;rounded=1;arcSize=24;edgeStyle=orthogonalEdgeStyle;startArrow=none;endArrow=block;endFill=1;exitX=1.003;exitY=0.5;exitPerimeter=0;entryX=-0.042;entryY=0.5;entryPerimeter=0;" parent="1" source="cKA45MoPgxY7f5fzsTJi-5" target="cKA45MoPgxY7f5fzsTJi-6" edge="1">
            <mxGeometry width="100" height="100" relative="1" as="geometry">
              <Array as="points" />
            </mxGeometry>
          </mxCell>
        </UserObject>
        <mxCell id="cKA45MoPgxY7f5fzsTJi-8" value="show login/registration page" style="html=1;overflow=block;blockSpacing=1;whiteSpace=wrap;fontSize=13;spacing=3.8;strokeColor=#333333;strokeOpacity=100;fillOpacity=100;rounded=1;absoluteArcSize=1;arcSize=12;fillColor=#ffffff;strokeWidth=0.8;" parent="1" vertex="1">
          <mxGeometry x="330" y="80" width="120" height="90" as="geometry" />
        </mxCell>
        <UserObject label="" lucidchartObjectId="e3laeS8TxfFF" id="cKA45MoPgxY7f5fzsTJi-9">
          <mxCell style="html=1;jettySize=18;whiteSpace=wrap;fontSize=13;strokeColor=#333333;strokeOpacity=100;strokeWidth=0.8;rounded=1;arcSize=24;edgeStyle=orthogonalEdgeStyle;startArrow=none;endArrow=block;endFill=1;exitX=0.5;exitY=-0.009;exitPerimeter=0;entryX=-0.003;entryY=0.5;entryPerimeter=0;" parent="1" source="cKA45MoPgxY7f5fzsTJi-2" target="cKA45MoPgxY7f5fzsTJi-8" edge="1">
            <mxGeometry width="100" height="100" relative="1" as="geometry">
              <Array as="points" />
            </mxGeometry>
          </mxCell>
        </UserObject>
        <mxCell id="FZIumXqJA60pz-zeK_dY-6" value="no" style="edgeLabel;html=1;align=center;verticalAlign=middle;resizable=0;points=[];" vertex="1" connectable="0" parent="cKA45MoPgxY7f5fzsTJi-9">
          <mxGeometry x="0.2215" y="-1" relative="1" as="geometry">
            <mxPoint as="offset" />
          </mxGeometry>
        </mxCell>
        <mxCell id="cKA45MoPgxY7f5fzsTJi-10" value="" style="html=1;overflow=block;blockSpacing=1;shape=mxgraph.bpmn.shape;perimeter=rhombusPerimeter;background=gateway;verticalLabelPosition=bottom;verticalAlign=top;outline=standard;symbol=multiple;strokeColor=#333333;strokeOpacity=100;fillOpacity=100;rounded=1;absoluteArcSize=1;arcSize=12;fillColor=#ffffff;strokeWidth=0.8;whiteSpace=wrap;fontSize=13;align=center;spacing=0;" parent="1" vertex="1">
          <mxGeometry x="540" y="97" width="56" height="56" as="geometry" />
        </mxCell>
        <UserObject label="" lucidchartObjectId="e3la2JJnv4QV" id="cKA45MoPgxY7f5fzsTJi-11">
          <mxCell style="html=1;jettySize=18;whiteSpace=wrap;fontSize=13;strokeColor=#333333;strokeOpacity=100;strokeWidth=0.8;rounded=1;arcSize=24;edgeStyle=orthogonalEdgeStyle;startArrow=none;endArrow=block;endFill=1;exitX=1.003;exitY=0.5;exitPerimeter=0;entryX=-0.009;entryY=0.5;entryPerimeter=0;" parent="1" source="cKA45MoPgxY7f5fzsTJi-8" target="cKA45MoPgxY7f5fzsTJi-10" edge="1">
            <mxGeometry width="100" height="100" relative="1" as="geometry">
              <Array as="points" />
            </mxGeometry>
          </mxCell>
        </UserObject>
        <mxCell id="cKA45MoPgxY7f5fzsTJi-12" value="redirect to login page" style="html=1;overflow=block;blockSpacing=1;whiteSpace=wrap;fontSize=13;spacing=3.8;strokeColor=#333333;strokeOpacity=100;fillOpacity=100;rounded=1;absoluteArcSize=1;arcSize=12;fillColor=#ffffff;strokeWidth=0.8;" parent="1" vertex="1">
          <mxGeometry x="780" y="20" width="120" height="90" as="geometry" />
        </mxCell>
        <mxCell id="cKA45MoPgxY7f5fzsTJi-20" style="edgeStyle=orthogonalEdgeStyle;rounded=0;orthogonalLoop=1;jettySize=auto;html=1;entryX=0;entryY=0.5;entryDx=0;entryDy=0;" parent="1" source="cKA45MoPgxY7f5fzsTJi-13" target="cKA45MoPgxY7f5fzsTJi-19" edge="1">
          <mxGeometry relative="1" as="geometry" />
        </mxCell>
        <mxCell id="cKA45MoPgxY7f5fzsTJi-13" value="redirect to lregistration page" style="html=1;overflow=block;blockSpacing=1;whiteSpace=wrap;fontSize=13;spacing=3.8;strokeColor=#333333;strokeOpacity=100;fillOpacity=100;rounded=1;absoluteArcSize=1;arcSize=12;fillColor=#ffffff;strokeWidth=0.8;" parent="1" vertex="1">
          <mxGeometry x="780" y="127" width="120" height="90" as="geometry" />
        </mxCell>
        <UserObject label="" lucidchartObjectId="e3laO3h1WFe6" id="cKA45MoPgxY7f5fzsTJi-14">
          <mxCell style="html=1;jettySize=18;whiteSpace=wrap;fontSize=13;strokeColor=#333333;strokeOpacity=100;strokeWidth=0.8;rounded=1;arcSize=24;edgeStyle=orthogonalEdgeStyle;startArrow=none;endArrow=block;endFill=1;exitX=0.5;exitY=-0.009;exitPerimeter=0;entryX=-0.003;entryY=0.5;entryPerimeter=0;" parent="1" source="cKA45MoPgxY7f5fzsTJi-10" target="cKA45MoPgxY7f5fzsTJi-12" edge="1">
            <mxGeometry width="100" height="100" relative="1" as="geometry">
              <Array as="points" />
            </mxGeometry>
          </mxCell>
        </UserObject>
        <mxCell id="cKA45MoPgxY7f5fzsTJi-15" value="user presses login button" style="text;html=1;resizable=0;labelBackgroundColor=default;align=center;verticalAlign=middle;fontColor=#333333;fontSize=13;" parent="cKA45MoPgxY7f5fzsTJi-14" vertex="1">
          <mxGeometry relative="1" as="geometry" />
        </mxCell>
        <UserObject label="" lucidchartObjectId="e3latjxnH2jz" id="cKA45MoPgxY7f5fzsTJi-16">
          <mxCell style="html=1;jettySize=18;whiteSpace=wrap;fontSize=13;strokeColor=#333333;strokeOpacity=100;strokeWidth=0.8;rounded=1;arcSize=24;edgeStyle=orthogonalEdgeStyle;startArrow=none;endArrow=block;endFill=1;exitX=0.5;exitY=1.009;exitPerimeter=0;entryX=-0.003;entryY=0.5;entryPerimeter=0;" parent="1" source="cKA45MoPgxY7f5fzsTJi-10" target="cKA45MoPgxY7f5fzsTJi-13" edge="1">
            <mxGeometry width="100" height="100" relative="1" as="geometry">
              <Array as="points" />
            </mxGeometry>
          </mxCell>
        </UserObject>
        <mxCell id="FZIumXqJA60pz-zeK_dY-5" value="user presses login button" style="edgeLabel;html=1;align=center;verticalAlign=middle;resizable=0;points=[];" vertex="1" connectable="0" parent="cKA45MoPgxY7f5fzsTJi-16">
          <mxGeometry x="-0.0919" y="1" relative="1" as="geometry">
            <mxPoint as="offset" />
          </mxGeometry>
        </mxCell>
        <mxCell id="cKA45MoPgxY7f5fzsTJi-17" value="Event" style="html=1;overflow=block;blockSpacing=1;whiteSpace=wrap;shape=mxgraph.bpmn.shape;verticalLabelPosition=bottom;verticalAlign=top;outline=end;fontSize=13;fontColor=#333333;align=center;spacing=0;strokeColor=#333333;strokeOpacity=100;fillOpacity=100;rounded=1;absoluteArcSize=1;arcSize=12;fillColor=#ffffff;strokeWidth=0.8;" parent="1" vertex="1">
          <mxGeometry x="1040" y="42.5" width="45" height="45" as="geometry" />
        </mxCell>
        <UserObject label="" lucidchartObjectId="e3laPEKTNxOG" id="cKA45MoPgxY7f5fzsTJi-18">
          <mxCell style="html=1;jettySize=18;whiteSpace=wrap;fontSize=13;strokeColor=#333333;strokeOpacity=100;strokeWidth=0.8;rounded=1;arcSize=24;edgeStyle=orthogonalEdgeStyle;startArrow=none;endArrow=block;endFill=1;exitX=1.003;exitY=0.5;exitPerimeter=0;entryX=0;entryY=0.5;entryDx=0;entryDy=0;" parent="1" source="cKA45MoPgxY7f5fzsTJi-12" target="cKA45MoPgxY7f5fzsTJi-17" edge="1">
            <mxGeometry width="100" height="100" relative="1" as="geometry">
              <Array as="points" />
              <mxPoint x="940" y="65" as="targetPoint" />
            </mxGeometry>
          </mxCell>
        </UserObject>
        <mxCell id="cKA45MoPgxY7f5fzsTJi-19" value="Event" style="html=1;overflow=block;blockSpacing=1;whiteSpace=wrap;shape=mxgraph.bpmn.shape;verticalLabelPosition=bottom;verticalAlign=top;outline=end;fontSize=13;fontColor=#333333;align=center;spacing=0;strokeColor=#333333;strokeOpacity=100;fillOpacity=100;rounded=1;absoluteArcSize=1;arcSize=12;fillColor=#ffffff;strokeWidth=0.8;" parent="1" vertex="1">
          <mxGeometry x="1040" y="149.5" width="45" height="45" as="geometry" />
        </mxCell>
        <mxCell id="cKA45MoPgxY7f5fzsTJi-21" value="client access to registration page" style="html=1;overflow=block;blockSpacing=1;whiteSpace=wrap;shape=mxgraph.bpmn.shape;verticalLabelPosition=bottom;verticalAlign=top;outline=standard;fontSize=13;fontColor=#333333;align=center;spacing=0;strokeColor=#333333;strokeOpacity=100;fillOpacity=100;rounded=1;absoluteArcSize=1;arcSize=12;fillColor=#ffffff;strokeWidth=0.8;" parent="1" vertex="1">
          <mxGeometry x="30" y="509" width="45" height="45" as="geometry" />
        </mxCell>
        <mxCell id="cKA45MoPgxY7f5fzsTJi-22" value="" style="html=1;overflow=block;blockSpacing=1;shape=mxgraph.bpmn.shape;perimeter=rhombusPerimeter;background=gateway;verticalLabelPosition=bottom;verticalAlign=top;outline=none;symbol=exclusiveGw;strokeColor=#333333;strokeOpacity=100;fillOpacity=100;rounded=1;absoluteArcSize=1;arcSize=12;fillColor=#ffffff;strokeWidth=0.8;whiteSpace=wrap;fontSize=13;align=center;spacing=0;" parent="1" vertex="1">
          <mxGeometry x="242" y="503" width="56" height="56" as="geometry" />
        </mxCell>
        <mxCell id="cKA45MoPgxY7f5fzsTJi-26" value="does the username already belong to an existing account?" style="html=1;overflow=block;blockSpacing=1;shape=mxgraph.bpmn.shape;perimeter=rhombusPerimeter;background=gateway;verticalLabelPosition=bottom;verticalAlign=top;outline=none;symbol=exclusiveGw;strokeColor=#333333;strokeOpacity=100;fillOpacity=100;rounded=1;absoluteArcSize=1;arcSize=12;fillColor=#ffffff;strokeWidth=0.8;whiteSpace=wrap;fontSize=13;fontColor=#333333;align=center;spacing=0;" parent="1" vertex="1">
          <mxGeometry x="630" y="503" width="56" height="56" as="geometry" />
        </mxCell>
        <mxCell id="cKA45MoPgxY7f5fzsTJi-27" value="error message:&#xa;username already in use" style="html=1;overflow=block;blockSpacing=1;whiteSpace=wrap;fontSize=13;spacing=3.8;strokeColor=#333333;strokeOpacity=100;fillOpacity=100;rounded=1;absoluteArcSize=1;arcSize=12;fillColor=#ffffff;strokeWidth=0.8;" parent="1" vertex="1">
          <mxGeometry x="480" y="320" width="120" height="90" as="geometry" />
        </mxCell>
        <mxCell id="cKA45MoPgxY7f5fzsTJi-28" value="" style="shape=message;strokeColor=#ffffff;fillColor=#333333;part=1;" parent="cKA45MoPgxY7f5fzsTJi-27" vertex="1">
          <mxGeometry width="19" height="12" relative="1" as="geometry">
            <mxPoint x="4" y="7" as="offset" />
          </mxGeometry>
        </mxCell>
        <mxCell id="cKA45MoPgxY7f5fzsTJi-29" value="save new account info" style="html=1;overflow=block;blockSpacing=1;whiteSpace=wrap;fontSize=13;spacing=3.8;strokeColor=#333333;strokeOpacity=100;fillOpacity=100;rounded=1;absoluteArcSize=1;arcSize=12;fillColor=#ffffff;strokeWidth=0.8;" parent="1" vertex="1">
          <mxGeometry x="870" y="486" width="120" height="90" as="geometry" />
        </mxCell>
        <mxCell id="cKA45MoPgxY7f5fzsTJi-30" value="redirect to login page" style="html=1;overflow=block;blockSpacing=1;whiteSpace=wrap;fontSize=13;spacing=3.8;strokeColor=#333333;strokeOpacity=100;fillOpacity=100;rounded=1;absoluteArcSize=1;arcSize=12;fillColor=#ffffff;strokeWidth=0.8;" parent="1" vertex="1">
          <mxGeometry x="1030" y="486" width="120" height="90" as="geometry" />
        </mxCell>
        <mxCell id="cKA45MoPgxY7f5fzsTJi-31" value="Event" style="html=1;overflow=block;blockSpacing=1;whiteSpace=wrap;shape=mxgraph.bpmn.shape;verticalLabelPosition=bottom;verticalAlign=top;outline=end;fontSize=13;fontColor=#333333;align=center;spacing=0;strokeColor=#333333;strokeOpacity=100;fillOpacity=100;rounded=1;absoluteArcSize=1;arcSize=12;fillColor=#ffffff;strokeWidth=0.8;" parent="1" vertex="1">
          <mxGeometry x="1215" y="509" width="45" height="45" as="geometry" />
        </mxCell>
        <UserObject label="" lucidchartObjectId="pklajJ3xJscu" id="cKA45MoPgxY7f5fzsTJi-32">
          <mxCell style="html=1;jettySize=18;whiteSpace=wrap;fontSize=13;strokeColor=#333333;strokeOpacity=100;strokeWidth=0.8;rounded=1;arcSize=24;edgeStyle=orthogonalEdgeStyle;startArrow=none;endArrow=block;endFill=1;exitX=1.008;exitY=0.5;exitPerimeter=0;entryX=-0.009;entryY=0.5;entryPerimeter=0;" parent="1" source="cKA45MoPgxY7f5fzsTJi-21" target="cKA45MoPgxY7f5fzsTJi-22" edge="1">
            <mxGeometry width="100" height="100" relative="1" as="geometry">
              <Array as="points" />
            </mxGeometry>
          </mxCell>
        </UserObject>
        <UserObject label="" lucidchartObjectId="Ikla1P4N-oDJ" id="cKA45MoPgxY7f5fzsTJi-33">
          <mxCell style="html=1;jettySize=18;whiteSpace=wrap;fontSize=13;strokeColor=#333333;strokeOpacity=100;strokeWidth=0.8;rounded=1;arcSize=24;edgeStyle=orthogonalEdgeStyle;startArrow=none;endArrow=block;endFill=1;exitX=1.009;exitY=0.5;exitPerimeter=0;entryX=0;entryY=0.5;entryDx=0;entryDy=0;" parent="1" source="cKA45MoPgxY7f5fzsTJi-22" target="FZIumXqJA60pz-zeK_dY-3" edge="1">
            <mxGeometry width="100" height="100" relative="1" as="geometry">
              <Array as="points" />
              <mxPoint x="359.6400000000001" y="531" as="targetPoint" />
            </mxGeometry>
          </mxCell>
        </UserObject>
        <UserObject label="" lucidchartObjectId="UklaSkG6j9EK" id="cKA45MoPgxY7f5fzsTJi-34">
          <mxCell style="html=1;jettySize=18;whiteSpace=wrap;fontSize=13;strokeColor=#333333;strokeOpacity=100;strokeWidth=0.8;rounded=1;arcSize=24;edgeStyle=orthogonalEdgeStyle;startArrow=none;endArrow=block;endFill=1;exitX=1;exitY=0.5;entryX=0;entryY=0.5;entryPerimeter=0;entryDx=0;entryDy=0;exitDx=0;exitDy=0;" parent="1" source="FZIumXqJA60pz-zeK_dY-3" target="FZIumXqJA60pz-zeK_dY-1" edge="1">
            <mxGeometry width="100" height="100" relative="1" as="geometry">
              <Array as="points" />
              <mxPoint x="480.3599999999999" y="531" as="sourcePoint" />
              <mxPoint x="524.6400000000001" y="531.5" as="targetPoint" />
            </mxGeometry>
          </mxCell>
        </UserObject>
        <UserObject label="" lucidchartObjectId="ZklaUgfjD.Wx" id="cKA45MoPgxY7f5fzsTJi-35">
          <mxCell style="html=1;jettySize=18;whiteSpace=wrap;fontSize=13;strokeColor=#333333;strokeOpacity=100;strokeWidth=0.8;rounded=1;arcSize=24;edgeStyle=orthogonalEdgeStyle;startArrow=none;endArrow=block;endFill=1;exitX=1;exitY=0.5;exitPerimeter=0;entryX=-0.009;entryY=0.5;entryPerimeter=0;exitDx=0;exitDy=0;" parent="1" source="FZIumXqJA60pz-zeK_dY-1" target="cKA45MoPgxY7f5fzsTJi-26" edge="1">
            <mxGeometry width="100" height="100" relative="1" as="geometry">
              <Array as="points" />
              <mxPoint x="570.3599999999999" y="531.5" as="sourcePoint" />
            </mxGeometry>
          </mxCell>
        </UserObject>
        <UserObject label="" lucidchartObjectId="9klaKWgwbUIG" id="cKA45MoPgxY7f5fzsTJi-36">
          <mxCell style="html=1;jettySize=18;whiteSpace=wrap;fontSize=13;strokeColor=#333333;strokeOpacity=100;strokeWidth=0.8;rounded=1;arcSize=24;edgeStyle=orthogonalEdgeStyle;startArrow=none;endArrow=block;endFill=1;exitX=1.009;exitY=0.5;exitPerimeter=0;entryX=-0.003;entryY=0.5;entryPerimeter=0;" parent="1" source="cKA45MoPgxY7f5fzsTJi-26" target="cKA45MoPgxY7f5fzsTJi-29" edge="1">
            <mxGeometry width="100" height="100" relative="1" as="geometry">
              <Array as="points" />
            </mxGeometry>
          </mxCell>
        </UserObject>
        <UserObject label="" lucidchartObjectId="dllaVDu4AuVY" id="cKA45MoPgxY7f5fzsTJi-37">
          <mxCell style="html=1;jettySize=18;whiteSpace=wrap;fontSize=13;strokeColor=#333333;strokeOpacity=100;strokeWidth=0.8;rounded=1;arcSize=24;edgeStyle=orthogonalEdgeStyle;startArrow=none;endArrow=block;endFill=1;exitX=1.003;exitY=0.5;exitPerimeter=0;entryX=-0.003;entryY=0.5;entryPerimeter=0;" parent="1" source="cKA45MoPgxY7f5fzsTJi-29" target="cKA45MoPgxY7f5fzsTJi-30" edge="1">
            <mxGeometry width="100" height="100" relative="1" as="geometry">
              <Array as="points" />
            </mxGeometry>
          </mxCell>
        </UserObject>
        <UserObject label="" lucidchartObjectId="jlla1dz3ljZK" id="cKA45MoPgxY7f5fzsTJi-38">
          <mxCell style="html=1;jettySize=18;whiteSpace=wrap;fontSize=13;strokeColor=#333333;strokeOpacity=100;strokeWidth=0.8;rounded=1;arcSize=24;edgeStyle=orthogonalEdgeStyle;startArrow=none;endArrow=block;endFill=1;exitX=1.003;exitY=0.5;exitPerimeter=0;entryX=-0.042;entryY=0.5;entryPerimeter=0;" parent="1" source="cKA45MoPgxY7f5fzsTJi-30" target="cKA45MoPgxY7f5fzsTJi-31" edge="1">
            <mxGeometry width="100" height="100" relative="1" as="geometry">
              <Array as="points" />
            </mxGeometry>
          </mxCell>
        </UserObject>
        <UserObject label="" lucidchartObjectId="nllarlE.AXvG" id="cKA45MoPgxY7f5fzsTJi-39">
          <mxCell style="html=1;jettySize=18;whiteSpace=wrap;fontSize=13;strokeColor=#333333;strokeOpacity=100;strokeWidth=0.8;rounded=1;arcSize=24;edgeStyle=orthogonalEdgeStyle;startArrow=none;endArrow=block;endFill=1;exitX=0.5;exitY=-0.009;exitPerimeter=0;entryX=1.003;entryY=0.5;entryPerimeter=0;" parent="1" source="cKA45MoPgxY7f5fzsTJi-26" target="cKA45MoPgxY7f5fzsTJi-27" edge="1">
            <mxGeometry width="100" height="100" relative="1" as="geometry">
              <Array as="points" />
            </mxGeometry>
          </mxCell>
        </UserObject>
        <mxCell id="cKA45MoPgxY7f5fzsTJi-40" value="uesername already in use" style="text;html=1;resizable=0;labelBackgroundColor=default;align=center;verticalAlign=middle;fontColor=#333333;fontSize=13;" parent="cKA45MoPgxY7f5fzsTJi-39" vertex="1">
          <mxGeometry x="-0.5140831540144857" relative="1" as="geometry" />
        </mxCell>
        <UserObject label="" lucidchartObjectId="rllaE7Pqv2eD" id="cKA45MoPgxY7f5fzsTJi-41">
          <mxCell style="html=1;jettySize=18;whiteSpace=wrap;fontSize=13;strokeColor=#333333;strokeOpacity=100;strokeWidth=0.8;rounded=1;arcSize=24;edgeStyle=orthogonalEdgeStyle;startArrow=none;endArrow=block;endFill=1;exitX=-0.003;exitY=0.5;exitPerimeter=0;entryX=0.5;entryY=-0.009;entryPerimeter=0;" parent="1" source="cKA45MoPgxY7f5fzsTJi-27" target="cKA45MoPgxY7f5fzsTJi-22" edge="1">
            <mxGeometry width="100" height="100" relative="1" as="geometry">
              <Array as="points" />
            </mxGeometry>
          </mxCell>
        </UserObject>
        <mxCell id="FZIumXqJA60pz-zeK_dY-10" style="edgeStyle=orthogonalEdgeStyle;rounded=0;orthogonalLoop=1;jettySize=auto;html=1;entryX=0;entryY=0.5;entryDx=0;entryDy=0;" edge="1" parent="1" source="cKA45MoPgxY7f5fzsTJi-42" target="FZIumXqJA60pz-zeK_dY-7">
          <mxGeometry relative="1" as="geometry" />
        </mxCell>
        <mxCell id="cKA45MoPgxY7f5fzsTJi-42" value="client access to login page" style="html=1;overflow=block;blockSpacing=1;whiteSpace=wrap;shape=mxgraph.bpmn.shape;verticalLabelPosition=bottom;verticalAlign=top;outline=standard;fontSize=13;fontColor=#333333;align=center;spacing=0;strokeColor=#333333;strokeOpacity=100;fillOpacity=100;rounded=1;absoluteArcSize=1;arcSize=12;fillColor=#ffffff;strokeWidth=0.8;" parent="1" vertex="1">
          <mxGeometry x="45" y="959" width="45" height="45" as="geometry" />
        </mxCell>
        <mxCell id="cKA45MoPgxY7f5fzsTJi-43" value="" style="html=1;overflow=block;blockSpacing=1;shape=mxgraph.bpmn.shape;perimeter=rhombusPerimeter;background=gateway;verticalLabelPosition=bottom;verticalAlign=top;outline=none;symbol=exclusiveGw;strokeColor=#333333;strokeOpacity=100;fillOpacity=100;rounded=1;absoluteArcSize=1;arcSize=12;fillColor=#ffffff;strokeWidth=0.8;whiteSpace=wrap;fontSize=13;align=center;spacing=0;" parent="1" vertex="1">
          <mxGeometry x="257" y="953" width="56" height="56" as="geometry" />
        </mxCell>
        <mxCell id="cKA45MoPgxY7f5fzsTJi-47" value="is the username registered?" style="html=1;overflow=block;blockSpacing=1;shape=mxgraph.bpmn.shape;perimeter=rhombusPerimeter;background=gateway;verticalLabelPosition=bottom;verticalAlign=top;outline=none;symbol=exclusiveGw;strokeColor=#333333;strokeOpacity=100;fillOpacity=100;rounded=1;absoluteArcSize=1;arcSize=12;fillColor=#ffffff;strokeWidth=0.8;whiteSpace=wrap;fontSize=13;fontColor=#333333;align=center;spacing=0;" parent="1" vertex="1">
          <mxGeometry x="645" y="953" width="56" height="56" as="geometry" />
        </mxCell>
        <mxCell id="cKA45MoPgxY7f5fzsTJi-48" value="error message:&#xa;invalid username" style="html=1;overflow=block;blockSpacing=1;whiteSpace=wrap;fontSize=13;spacing=3.8;strokeColor=#333333;strokeOpacity=100;fillOpacity=100;rounded=1;absoluteArcSize=1;arcSize=12;fillColor=#ffffff;strokeWidth=0.8;" parent="1" vertex="1">
          <mxGeometry x="503" y="842" width="120" height="90" as="geometry" />
        </mxCell>
        <mxCell id="cKA45MoPgxY7f5fzsTJi-49" value="" style="shape=message;strokeColor=#ffffff;fillColor=#333333;part=1;" parent="cKA45MoPgxY7f5fzsTJi-48" vertex="1">
          <mxGeometry width="19" height="12" relative="1" as="geometry">
            <mxPoint x="4" y="7" as="offset" />
          </mxGeometry>
        </mxCell>
        <mxCell id="cKA45MoPgxY7f5fzsTJi-50" value="redirect to main page" style="html=1;overflow=block;blockSpacing=1;whiteSpace=wrap;fontSize=13;spacing=3.8;strokeColor=#333333;strokeOpacity=100;fillOpacity=100;rounded=1;absoluteArcSize=1;arcSize=12;fillColor=#ffffff;strokeWidth=0.8;" parent="1" vertex="1">
          <mxGeometry x="947" y="936" width="120" height="90" as="geometry" />
        </mxCell>
        <mxCell id="cKA45MoPgxY7f5fzsTJi-51" value="Event" style="html=1;overflow=block;blockSpacing=1;whiteSpace=wrap;shape=mxgraph.bpmn.shape;verticalLabelPosition=bottom;verticalAlign=top;outline=end;fontSize=13;fontColor=#333333;align=center;spacing=0;strokeColor=#333333;strokeOpacity=100;fillOpacity=100;rounded=1;absoluteArcSize=1;arcSize=12;fillColor=#ffffff;strokeWidth=0.8;" parent="1" vertex="1">
          <mxGeometry x="1097" y="959" width="45" height="45" as="geometry" />
        </mxCell>
        <UserObject label="" lucidchartObjectId="Wpla-rw0rFkD" id="cKA45MoPgxY7f5fzsTJi-53">
          <mxCell style="html=1;jettySize=18;whiteSpace=wrap;fontSize=13;strokeColor=#333333;strokeOpacity=100;strokeWidth=0.8;rounded=1;arcSize=24;edgeStyle=orthogonalEdgeStyle;startArrow=none;endArrow=block;endFill=1;exitX=1.009;exitY=0.5;exitPerimeter=0;entryX=0;entryY=0.5;entryDx=0;entryDy=0;" parent="1" source="cKA45MoPgxY7f5fzsTJi-43" target="FZIumXqJA60pz-zeK_dY-4" edge="1">
            <mxGeometry width="100" height="100" relative="1" as="geometry">
              <Array as="points" />
              <mxPoint x="374.6400000000001" y="981" as="targetPoint" />
            </mxGeometry>
          </mxCell>
        </UserObject>
        <UserObject label="" lucidchartObjectId="WplaiMYotuw~" id="cKA45MoPgxY7f5fzsTJi-54">
          <mxCell style="html=1;jettySize=18;whiteSpace=wrap;fontSize=13;strokeColor=#333333;strokeOpacity=100;strokeWidth=0.8;rounded=1;arcSize=24;edgeStyle=orthogonalEdgeStyle;startArrow=none;endArrow=block;endFill=1;exitX=1;exitY=0.5;entryX=0;entryY=0.5;entryPerimeter=0;entryDx=0;entryDy=0;exitDx=0;exitDy=0;" parent="1" source="FZIumXqJA60pz-zeK_dY-4" target="FZIumXqJA60pz-zeK_dY-2" edge="1">
            <mxGeometry width="100" height="100" relative="1" as="geometry">
              <Array as="points" />
              <mxPoint x="495.3599999999999" y="981" as="sourcePoint" />
              <mxPoint x="539.6400000000001" y="981.5" as="targetPoint" />
            </mxGeometry>
          </mxCell>
        </UserObject>
        <UserObject label="" lucidchartObjectId="WplarnvneTjH" id="cKA45MoPgxY7f5fzsTJi-55">
          <mxCell style="html=1;jettySize=18;whiteSpace=wrap;fontSize=13;strokeColor=#333333;strokeOpacity=100;strokeWidth=0.8;rounded=1;arcSize=24;edgeStyle=orthogonalEdgeStyle;startArrow=none;endArrow=block;endFill=1;exitX=1;exitY=0.5;exitPerimeter=0;entryX=-0.009;entryY=0.5;entryPerimeter=0;exitDx=0;exitDy=0;" parent="1" source="FZIumXqJA60pz-zeK_dY-2" target="cKA45MoPgxY7f5fzsTJi-47" edge="1">
            <mxGeometry width="100" height="100" relative="1" as="geometry">
              <Array as="points" />
              <mxPoint x="585.3599999999999" y="981.5" as="sourcePoint" />
            </mxGeometry>
          </mxCell>
        </UserObject>
        <UserObject label="" lucidchartObjectId="Wplae~E9OCZZ" id="cKA45MoPgxY7f5fzsTJi-56">
          <mxCell style="html=1;jettySize=18;whiteSpace=wrap;fontSize=13;strokeColor=#333333;strokeOpacity=100;strokeWidth=0.8;rounded=1;arcSize=24;edgeStyle=orthogonalEdgeStyle;startArrow=none;endArrow=block;endFill=1;exitX=1.009;exitY=0.5;exitPerimeter=0;entryX=-0.009;entryY=0.5;entryPerimeter=0;" parent="1" source="cKA45MoPgxY7f5fzsTJi-47" target="cKA45MoPgxY7f5fzsTJi-64" edge="1">
            <mxGeometry width="100" height="100" relative="1" as="geometry">
              <Array as="points" />
            </mxGeometry>
          </mxCell>
        </UserObject>
        <mxCell id="cKA45MoPgxY7f5fzsTJi-57" value="yes" style="text;html=1;resizable=0;labelBackgroundColor=default;align=center;verticalAlign=middle;fontColor=#333333;fontSize=13;" parent="cKA45MoPgxY7f5fzsTJi-56" vertex="1">
          <mxGeometry x="-0.14401479399750394" relative="1" as="geometry" />
        </mxCell>
        <UserObject label="" lucidchartObjectId="HrlaNNPPBv8q" id="cKA45MoPgxY7f5fzsTJi-58">
          <mxCell style="html=1;jettySize=18;whiteSpace=wrap;fontSize=13;strokeColor=#333333;strokeOpacity=100;strokeWidth=0.8;rounded=1;arcSize=24;edgeStyle=orthogonalEdgeStyle;startArrow=none;endArrow=block;endFill=1;exitX=1.009;exitY=0.5;exitPerimeter=0;entryX=-0.003;entryY=0.5;entryPerimeter=0;" parent="1" source="cKA45MoPgxY7f5fzsTJi-64" target="cKA45MoPgxY7f5fzsTJi-50" edge="1">
            <mxGeometry width="100" height="100" relative="1" as="geometry">
              <Array as="points" />
            </mxGeometry>
          </mxCell>
        </UserObject>
        <mxCell id="cKA45MoPgxY7f5fzsTJi-59" value="yes" style="text;html=1;resizable=0;labelBackgroundColor=default;align=center;verticalAlign=middle;fontColor=#333333;fontSize=13;" parent="cKA45MoPgxY7f5fzsTJi-58" vertex="1">
          <mxGeometry relative="1" as="geometry" />
        </mxCell>
        <UserObject label="" lucidchartObjectId="WplaoJgWNoyk" id="cKA45MoPgxY7f5fzsTJi-60">
          <mxCell style="html=1;jettySize=18;whiteSpace=wrap;fontSize=13;strokeColor=#333333;strokeOpacity=100;strokeWidth=0.8;rounded=1;arcSize=24;edgeStyle=orthogonalEdgeStyle;startArrow=none;endArrow=block;endFill=1;exitX=1.003;exitY=0.5;exitPerimeter=0;entryX=-0.042;entryY=0.5;entryPerimeter=0;" parent="1" source="cKA45MoPgxY7f5fzsTJi-50" target="cKA45MoPgxY7f5fzsTJi-51" edge="1">
            <mxGeometry width="100" height="100" relative="1" as="geometry">
              <Array as="points" />
            </mxGeometry>
          </mxCell>
        </UserObject>
        <UserObject label="" lucidchartObjectId="WplaDWLZ3rSU" id="cKA45MoPgxY7f5fzsTJi-61">
          <mxCell style="html=1;jettySize=18;whiteSpace=wrap;fontSize=13;strokeColor=#333333;strokeOpacity=100;strokeWidth=0.8;rounded=1;arcSize=24;edgeStyle=orthogonalEdgeStyle;startArrow=none;endArrow=block;endFill=1;exitX=0.5;exitY=-0.009;exitPerimeter=0;entryX=1.003;entryY=0.5;entryPerimeter=0;" parent="1" source="cKA45MoPgxY7f5fzsTJi-47" target="cKA45MoPgxY7f5fzsTJi-48" edge="1">
            <mxGeometry width="100" height="100" relative="1" as="geometry">
              <Array as="points" />
            </mxGeometry>
          </mxCell>
        </UserObject>
        <mxCell id="cKA45MoPgxY7f5fzsTJi-62" value="no" style="text;html=1;resizable=0;labelBackgroundColor=default;align=center;verticalAlign=middle;fontColor=#333333;fontSize=13;" parent="cKA45MoPgxY7f5fzsTJi-61" vertex="1">
          <mxGeometry x="-0.48950406813864533" relative="1" as="geometry" />
        </mxCell>
        <UserObject label="" lucidchartObjectId="Wpla5dD8WSNR" id="cKA45MoPgxY7f5fzsTJi-63">
          <mxCell style="html=1;jettySize=18;whiteSpace=wrap;fontSize=13;strokeColor=#333333;strokeOpacity=100;strokeWidth=0.8;rounded=1;arcSize=24;edgeStyle=orthogonalEdgeStyle;startArrow=none;endArrow=block;endFill=1;exitX=-0.003;exitY=0.5;exitPerimeter=0;entryX=0.5;entryY=-0.009;entryPerimeter=0;" parent="1" source="cKA45MoPgxY7f5fzsTJi-48" target="cKA45MoPgxY7f5fzsTJi-43" edge="1">
            <mxGeometry width="100" height="100" relative="1" as="geometry">
              <Array as="points" />
            </mxGeometry>
          </mxCell>
        </UserObject>
        <mxCell id="cKA45MoPgxY7f5fzsTJi-64" value="is the given password the same as the username associated password?" style="html=1;overflow=block;blockSpacing=1;shape=mxgraph.bpmn.shape;perimeter=rhombusPerimeter;background=gateway;verticalLabelPosition=bottom;verticalAlign=top;outline=none;symbol=exclusiveGw;strokeColor=#333333;strokeOpacity=100;fillOpacity=100;rounded=1;absoluteArcSize=1;arcSize=12;fillColor=#ffffff;strokeWidth=0.8;whiteSpace=wrap;fontSize=13;fontColor=#333333;align=center;spacing=0;" parent="1" vertex="1">
          <mxGeometry x="795" y="953" width="56" height="56" as="geometry" />
        </mxCell>
        <mxCell id="cKA45MoPgxY7f5fzsTJi-65" value="error message:&#xa;wrong password" style="html=1;overflow=block;blockSpacing=1;whiteSpace=wrap;fontSize=13;spacing=3.8;strokeColor=#333333;strokeOpacity=100;fillOpacity=100;rounded=1;absoluteArcSize=1;arcSize=12;fillColor=#ffffff;strokeWidth=0.8;" parent="1" vertex="1">
          <mxGeometry x="510" y="725" width="120" height="90" as="geometry" />
        </mxCell>
        <mxCell id="cKA45MoPgxY7f5fzsTJi-66" value="" style="shape=message;strokeColor=#ffffff;fillColor=#333333;part=1;" parent="cKA45MoPgxY7f5fzsTJi-65" vertex="1">
          <mxGeometry width="19" height="12" relative="1" as="geometry">
            <mxPoint x="4" y="7" as="offset" />
          </mxGeometry>
        </mxCell>
        <UserObject label="" lucidchartObjectId="nslaBOp0-9F0" id="cKA45MoPgxY7f5fzsTJi-67">
          <mxCell style="html=1;jettySize=18;whiteSpace=wrap;fontSize=13;strokeColor=#333333;strokeOpacity=100;strokeWidth=0.8;rounded=1;arcSize=24;edgeStyle=orthogonalEdgeStyle;startArrow=none;endArrow=block;endFill=1;exitX=0.5;exitY=-0.009;exitPerimeter=0;entryX=1.003;entryY=0.5;entryPerimeter=0;" parent="1" source="cKA45MoPgxY7f5fzsTJi-64" target="cKA45MoPgxY7f5fzsTJi-65" edge="1">
            <mxGeometry width="100" height="100" relative="1" as="geometry">
              <Array as="points" />
            </mxGeometry>
          </mxCell>
        </UserObject>
        <mxCell id="cKA45MoPgxY7f5fzsTJi-68" value="no" style="text;html=1;resizable=0;labelBackgroundColor=default;align=center;verticalAlign=middle;fontColor=#333333;fontSize=13;" parent="cKA45MoPgxY7f5fzsTJi-67" vertex="1">
          <mxGeometry x="-0.48950406813864533" relative="1" as="geometry" />
        </mxCell>
        <UserObject label="" lucidchartObjectId="nslam.zmN2rh" id="cKA45MoPgxY7f5fzsTJi-69">
          <mxCell style="html=1;jettySize=18;whiteSpace=wrap;fontSize=13;strokeColor=#333333;strokeOpacity=100;strokeWidth=0.8;rounded=1;arcSize=24;edgeStyle=orthogonalEdgeStyle;startArrow=none;endArrow=block;endFill=1;exitX=-0.003;exitY=0.5;exitPerimeter=0;entryX=0.5;entryY=0;entryDx=0;entryDy=0;" parent="1" source="cKA45MoPgxY7f5fzsTJi-65" target="FZIumXqJA60pz-zeK_dY-7" edge="1">
            <mxGeometry width="100" height="100" relative="1" as="geometry">
              <Array as="points">
                <mxPoint x="198" y="770" />
              </Array>
              <mxPoint x="190" y="940" as="targetPoint" />
            </mxGeometry>
          </mxCell>
        </UserObject>
        <mxCell id="FZIumXqJA60pz-zeK_dY-1" value="client  inserts&lt;br&gt;username, password,&lt;br&gt;and vehicle(if any)" style="points=[[0.145,0.145,0],[0.5,0,0],[0.855,0.145,0],[1,0.5,0],[0.855,0.855,0],[0.5,1,0],[0.145,0.855,0],[0,0.5,0]];shape=mxgraph.bpmn.event;html=1;verticalLabelPosition=bottom;labelBackgroundColor=none;verticalAlign=top;align=center;perimeter=ellipsePerimeter;outlineConnect=0;aspect=fixed;outline=boundInt;symbol=message;" vertex="1" parent="1">
          <mxGeometry x="530" y="506.5" width="50" height="50" as="geometry" />
        </mxCell>
        <mxCell id="FZIumXqJA60pz-zeK_dY-2" value="client  inserts&lt;br&gt;username, password,&lt;br&gt;and vehicle(if any)" style="points=[[0.145,0.145,0],[0.5,0,0],[0.855,0.145,0],[1,0.5,0],[0.855,0.855,0],[0.5,1,0],[0.145,0.855,0],[0,0.5,0]];shape=mxgraph.bpmn.event;html=1;verticalLabelPosition=bottom;labelBackgroundColor=none;verticalAlign=top;align=center;perimeter=ellipsePerimeter;outlineConnect=0;aspect=fixed;outline=boundInt;symbol=message;" vertex="1" parent="1">
          <mxGeometry x="538" y="956" width="50" height="50" as="geometry" />
        </mxCell>
        <mxCell id="FZIumXqJA60pz-zeK_dY-3" value="&lt;div&gt;save registration&lt;/div&gt;&lt;div&gt;page&lt;br&gt;&lt;/div&gt;" style="html=1;overflow=block;blockSpacing=1;whiteSpace=wrap;fontSize=13;spacing=3.8;strokeColor=#333333;strokeOpacity=100;fillOpacity=100;rounded=1;absoluteArcSize=1;arcSize=12;fillColor=#ffffff;strokeWidth=0.8;" vertex="1" parent="1">
          <mxGeometry x="330" y="486" width="120" height="90" as="geometry" />
        </mxCell>
        <mxCell id="FZIumXqJA60pz-zeK_dY-4" value="&lt;div&gt;save registration&lt;/div&gt;&lt;div&gt;page&lt;br&gt;&lt;/div&gt;" style="html=1;overflow=block;blockSpacing=1;whiteSpace=wrap;fontSize=13;spacing=3.8;strokeColor=#333333;strokeOpacity=100;fillOpacity=100;rounded=1;absoluteArcSize=1;arcSize=12;fillColor=#ffffff;strokeWidth=0.8;" vertex="1" parent="1">
          <mxGeometry x="365" y="936.5" width="120" height="90" as="geometry" />
        </mxCell>
        <mxCell id="FZIumXqJA60pz-zeK_dY-9" style="edgeStyle=orthogonalEdgeStyle;rounded=0;orthogonalLoop=1;jettySize=auto;html=1;entryX=0;entryY=0.5;entryDx=0;entryDy=0;" edge="1" parent="1" source="FZIumXqJA60pz-zeK_dY-7" target="cKA45MoPgxY7f5fzsTJi-43">
          <mxGeometry relative="1" as="geometry" />
        </mxCell>
        <mxCell id="FZIumXqJA60pz-zeK_dY-7" value="" style="html=1;overflow=block;blockSpacing=1;shape=mxgraph.bpmn.shape;perimeter=rhombusPerimeter;background=gateway;verticalLabelPosition=bottom;verticalAlign=top;outline=none;symbol=exclusiveGw;strokeColor=#333333;strokeOpacity=100;fillOpacity=100;rounded=1;absoluteArcSize=1;arcSize=12;fillColor=#ffffff;strokeWidth=0.8;whiteSpace=wrap;fontSize=13;align=center;spacing=0;" vertex="1" parent="1">
          <mxGeometry x="170" y="953" width="56" height="56" as="geometry" />
        </mxCell>
      </root>
    </mxGraphModel>
  </diagram>
</mxfile>
